<svg width="16" height="21" viewBox="0 0 16 21" fill="none" xmlns="http://www.w3.org/2000/svg">
<path d="M2.34245 14.8343L2.5 14.6862V14.47V9.31998C2.5 6.58215 3.9507 4.50198 6.14869 3.81736L6.5 3.70793V3.33998V2.95998C6.5 1.89943 7.61095 1.07718 8.76879 1.64838L8.76916 1.64856C9.21429 1.8677 9.5 2.37944 9.5 2.95998V3.34998V3.71937L9.8531 3.82791C12.0483 4.50266 13.5 6.59066 13.5 9.32998V14.48V14.697L13.6585 14.8452L15.5 16.567V17.5H0.5V16.5662L2.34245 14.8343ZM9.41352 19.5C9.20605 20.0806 8.64884 20.5 8 20.5C7.35116 20.5 6.79395 20.0806 6.58648 19.5H9.41352Z" fill="black" stroke="white"/>
</svg>
