<svg width="24" height="24" viewBox="0 0 24 24" fill="none" xmlns="http://www.w3.org/2000/svg">
<g clip-path="url(#clip0_37_55)">
<path d="M12.9377 0.0292344C16.6068 0.0233021 20.2714 0.0237758 23.9361 0.0201379C24.0149 0.0200597 24.0193 0.0512574 24.0192 0.137544C24.0176 8.06253 24.0176 15.9875 24.0197 23.9125C24.0197 24.0067 24.0057 24.0259 23.9334 24.0259C17.0338 24.0231 10.1341 24.0233 3.22609 24.0233C3.19427 23.9943 3.19839 23.9695 3.20632 23.9259C3.2552 23.6574 3.36045 23.4199 3.44221 23.1703C3.7238 22.3107 4.02037 21.4594 4.29074 20.5937C4.59374 19.6235 5.00358 18.7374 5.48222 17.9022C5.73163 17.467 6.0097 17.0654 6.29648 16.6717C6.88358 15.8659 7.54929 15.1902 8.26992 14.6077C8.86111 14.1297 9.48771 13.7439 10.1444 13.4421C10.8292 13.1274 11.5304 12.9076 12.2497 12.7874C12.4491 12.7541 12.6499 12.7337 12.8509 12.7195C12.9072 12.7155 12.9303 12.7476 12.9322 12.817C12.9335 12.8636 12.9333 12.9102 12.9333 12.9567C12.9333 14.6615 12.9331 16.3664 12.9342 18.0712C12.9342 18.1379 12.9093 18.2292 12.9634 18.2648C13.0203 18.3022 13.0561 18.2131 13.0945 18.1722C13.8575 17.3594 14.6199 16.5458 15.3801 15.7285C15.7922 15.2854 16.206 14.8448 16.6196 14.404C17.1135 13.8775 17.6059 13.3484 18.0979 12.8187C18.5098 12.3754 18.9252 11.9376 19.3373 11.4946C19.9325 10.8545 20.5341 10.2244 21.1238 9.5755C21.1895 9.50327 21.2589 9.43678 21.3242 9.36346C21.4289 9.24585 21.4293 9.20661 21.3263 9.09327C21.0541 8.79364 20.7754 8.5046 20.5004 8.20946C19.7672 7.42241 19.0303 6.64129 18.2964 5.85536C17.8354 5.3617 17.3745 4.8679 16.9124 4.37612C16.4365 3.86974 15.9612 3.36242 15.4859 2.85521C15.0679 2.40924 14.6515 1.96068 14.2327 1.51601C13.8233 1.08124 13.4191 0.638107 13.005 0.210809C12.9651 0.169622 12.8976 0.134942 12.9377 0.0292344Z" fill="#282828"/>
<path d="M3.18706 24.0163C2.15137 24.0233 1.1205 24.0225 0.0896227 24.0254C0.0303109 24.0256 0.0160329 24.0127 0.0160523 23.9311C0.0179352 15.995 0.0179263 8.05892 0.0161913 0.122857C0.0161733 0.040344 0.0276841 0.0209027 0.0929289 0.0209427C4.3527 0.0235549 8.61248 0.0233018 12.8806 0.0233018C12.9343 0.0839216 12.9334 0.160847 12.9334 0.23776C12.9333 1.8688 12.9334 3.49984 12.9333 5.13088C12.9333 5.29399 12.931 5.45718 12.9341 5.62016C12.9359 5.71636 12.9042 5.76197 12.8343 5.77821C12.7583 5.79589 12.6811 5.80224 12.6048 5.80891C12.1785 5.84616 11.7577 5.93335 11.3399 6.0463C10.6821 6.22415 10.047 6.4962 9.42928 6.84141C8.94579 7.11159 8.48183 7.43045 8.03653 7.79446C7.59102 8.15863 7.17112 8.57013 6.77406 9.02088C6.03719 9.85738 5.40278 10.812 4.87052 11.8816C4.43999 12.7467 4.09089 13.6656 3.82826 14.641C3.70388 15.1029 3.59399 15.5698 3.50812 16.0463C3.4032 16.6284 3.32493 17.2168 3.28232 17.8125C3.2547 18.1986 3.22796 18.5854 3.22749 18.9734C3.22559 20.5423 3.22648 22.1112 3.22713 23.6801C3.22717 23.7925 3.22127 23.9028 3.18706 24.0163Z" fill="#282828"/>
<path d="M3.18816 24.0233C3.18345 23.8952 3.18571 23.7671 3.18575 23.639C3.1862 22.0662 3.1805 20.4933 3.18883 18.9206C3.19354 18.0299 3.27713 17.1485 3.42161 16.2767C3.65765 14.8523 4.06216 13.5162 4.63275 12.2669C4.99288 11.4784 5.41344 10.7484 5.88831 10.0712C6.40167 9.3392 6.96706 8.68603 7.58774 8.11515C8.41064 7.35827 9.30105 6.7773 10.2557 6.36522C10.9047 6.08505 11.5685 5.89434 12.2479 5.79391C12.4247 5.76778 12.6018 5.75131 12.7787 5.73081C12.858 5.72162 12.893 5.67507 12.8929 5.56725C12.8914 3.74205 12.8914 1.91684 12.891 0.0916361C12.891 0.0761398 12.8896 0.0606441 12.8888 0.0342241C12.9022 0.0233002 12.9156 0.0233002 12.9356 0.0233002C12.9908 0.167624 13.0995 0.231519 13.1848 0.323153C13.897 1.08866 14.6131 1.84799 15.3275 2.60995C16.5934 3.96001 17.8591 5.31023 19.1245 6.66111C19.8824 7.47021 20.6394 8.28068 21.3968 9.09054C21.4128 9.10772 21.4282 9.1261 21.445 9.14191C21.5089 9.20191 21.5005 9.25421 21.4425 9.31558C21.2304 9.53973 21.0206 9.76766 20.8096 9.99362C20.055 10.8018 19.3004 11.6099 18.5456 12.4178C17.9858 13.017 17.4256 13.6154 16.866 14.2148C15.905 15.2442 14.9445 16.2742 13.9836 17.3037C13.6557 17.655 13.3275 18.006 12.9988 18.3561C12.975 18.3815 12.9491 18.4266 12.9145 18.3973C12.88 18.368 12.8931 18.312 12.893 18.2672C12.8923 17.0208 12.8924 15.7744 12.8924 14.5281C12.8924 14.0039 12.8926 13.4797 12.8922 12.9555C12.8921 12.7872 12.8875 12.7796 12.7639 12.789C12.0838 12.8407 11.4185 13.0039 10.7635 13.2458C9.89437 13.5669 9.07494 14.0386 8.30361 14.6512C7.72972 15.107 7.19364 15.6316 6.70086 16.2301C6.04107 17.0315 5.47354 17.9323 4.99283 18.9295C4.68754 19.5628 4.45778 20.243 4.23314 20.9281C3.90459 21.9301 3.57114 22.9293 3.23998 23.9299C3.2318 23.9546 3.22597 23.9807 3.21841 24.0147C3.20989 24.0233 3.20198 24.0233 3.18816 24.0233Z" fill="white"/>
<path d="M19.1258 9.96892C18.0057 11.1673 16.8903 12.3601 15.7753 13.5535C15.2133 14.1551 14.652 14.7581 14.0899 15.3596C14.0635 15.3878 14.0377 15.4409 14.0001 15.419C13.9573 15.3942 13.9727 15.3301 13.9727 15.2823C13.9718 14.0631 13.972 12.8439 13.9719 11.6247C13.9719 11.582 13.9701 11.5391 13.972 11.4966C13.9768 11.3898 13.9437 11.3409 13.8581 11.3425C13.4613 11.3501 13.0646 11.3356 12.6679 11.3741C11.7746 11.4608 10.9019 11.6829 10.0507 12.0462C8.8136 12.5742 7.68371 13.3672 6.65866 14.4178C5.81277 15.2847 5.07725 16.2891 4.45637 17.4377C4.43581 17.4757 4.41881 17.5499 4.37765 17.5285C4.3363 17.5069 4.36256 17.4373 4.36743 17.3909C4.44568 16.6464 4.5838 15.9207 4.77055 15.2105C5.01397 14.2848 5.34097 13.4116 5.74768 12.5918C6.22028 11.6391 6.78897 10.7945 7.44377 10.0485C8.12178 9.276 8.87154 8.6518 9.68957 8.16901C10.3895 7.75594 11.1186 7.46712 11.8756 7.29403C12.5176 7.14725 13.1643 7.11161 13.8136 7.11117C13.9676 7.11106 13.9718 7.10555 13.9718 6.89989C13.972 5.67682 13.9717 4.45374 13.9729 3.23067C13.9729 3.17188 13.9501 3.09011 14.0001 3.06009C14.0494 3.03057 14.0825 3.10608 14.1171 3.14301C14.7491 3.81653 15.3794 4.49258 16.0111 5.16658C16.8977 6.11262 17.7853 7.05712 18.672 8.00291C19.0235 8.37782 19.3745 8.75362 19.7245 9.13085C19.8115 9.22461 19.8094 9.23904 19.7232 9.33103C19.5256 9.54187 19.3281 9.75274 19.1258 9.96892Z" fill="#282828"/>
</g>
<defs>
<clipPath id="clip0_37_55">
<rect width="24" height="24" fill="white"/>
</clipPath>
</defs>
</svg>
