<svg width="139" height="37" viewBox="0 0 139 37" fill="none" xmlns="http://www.w3.org/2000/svg">
<g clip-path="url(#clip0_4_6)">
<g clip-path="url(#clip1_4_6)">
<path d="M43.2023 5.77799C42.6939 3.50248 41.2008 1.71425 39.3012 1.10513C35.8615 3.30806e-07 22.0624 0 22.0624 0C22.0624 0 8.26343 3.30806e-07 4.82366 1.10513C2.92399 1.71425 1.43112 3.50248 0.922599 5.77799C2.76168e-07 9.89828 0 18.5 0 18.5C0 18.5 2.76168e-07 27.1018 0.922599 31.2221C1.43112 33.4976 2.92399 35.2858 4.82366 35.8948C8.26343 37 22.0624 37 22.0624 37C22.0624 37 35.8615 37 39.3012 35.8948C41.2008 35.2858 42.6939 33.4976 43.2023 31.2221C44.1249 27.1018 44.1249 18.5 44.1249 18.5C44.1249 18.5 44.1212 9.89828 43.2023 5.77799Z" fill="#FF0000"/>
<path d="M17.6458 26.428L29.1092 18.5007L17.6458 10.5734V26.428Z" fill="white"/>
<path d="M53.4415 24.0567L48.4871 2.62415H52.8095L54.5458 12.3397C54.9889 14.7327 55.3121 16.7732 55.5228 18.4614H55.6499C55.7952 17.2518 56.1222 15.2243 56.6271 12.3745L58.4249 2.62415H62.7474L57.7312 24.0567V34.3378H53.4379V24.0567H53.4415Z" fill="white"/>
<path d="M64.0477 33.6583C63.176 32.9535 62.5548 31.857 62.1843 30.369C61.8175 28.8811 61.6323 26.9058 61.6323 24.4344V21.0711C61.6323 18.578 61.843 16.5724 62.2643 15.0626C62.6856 13.5529 63.3431 12.4477 64.2365 11.7559C65.1302 11.0641 66.3033 10.7161 67.7563 10.7161C69.1874 10.7161 70.3315 11.0685 71.196 11.7733C72.0568 12.4782 72.6888 13.5833 73.0884 15.08C73.4879 16.5811 73.6878 18.578 73.6878 21.0711V24.4344C73.6878 26.9058 73.4916 28.8898 73.103 30.3864C72.7143 31.8875 72.0823 32.984 71.2105 33.6757C70.3388 34.3676 69.1547 34.7156 67.6618 34.7156C66.1217 34.7199 64.9195 34.3632 64.0477 33.6583ZM68.9367 30.0297C69.1764 29.2727 69.3 28.0414 69.3 26.3271V19.109C69.3 17.4469 69.1801 16.2286 68.9367 15.4629C68.6933 14.6928 68.2685 14.3099 67.6581 14.3099C67.0698 14.3099 66.652 14.6928 66.4124 15.4629C66.1689 16.233 66.0491 17.4469 66.0491 19.109V26.3271C66.0491 28.0414 66.1652 29.277 66.3978 30.0297C66.6303 30.7868 67.0479 31.1653 67.6581 31.1653C68.2685 31.1653 68.6933 30.7868 68.9367 30.0297Z" fill="white"/>
<path d="M87.7482 34.3423H84.3412L83.9634 31.5055H83.869C82.9427 33.6461 81.5552 34.7164 79.7028 34.7164C78.4206 34.7164 77.4726 34.2117 76.8624 33.2068C76.2522 32.1972 75.947 30.6223 75.947 28.4817V11.1694H80.3022V28.177C80.3022 29.2126 80.3965 29.9478 80.5854 30.3874C80.7743 30.8267 81.0903 31.0485 81.5334 31.0485C81.9112 31.0485 82.2744 30.9094 82.6231 30.631C82.9719 30.3524 83.2261 30 83.3968 29.5737V11.165H87.7482V34.3423Z" fill="white"/>
<path d="M99.5788 6.82201H95.2564V34.3414H90.9957V6.82201H86.6733V2.62775H99.5788V6.82201Z" fill="white"/>
<path d="M110.083 34.3423H106.676L106.298 31.5055H106.204C105.278 33.6461 103.89 34.7164 102.038 34.7164C100.755 34.7164 99.8074 34.2117 99.1972 33.2068C98.587 32.1972 98.2818 30.6223 98.2818 28.4817V11.1694H102.637V28.177C102.637 29.2126 102.731 29.9478 102.92 30.3874C103.109 30.8267 103.425 31.0485 103.868 31.0485C104.246 31.0485 104.609 30.9094 104.958 30.631C105.307 30.3524 105.561 30 105.732 29.5737V11.165H110.083V34.3423Z" fill="white"/>
<path d="M124.496 14.8716C124.231 13.4097 123.806 12.3524 123.218 11.6954C122.629 11.0385 121.819 10.7121 120.788 10.7121C119.989 10.7121 119.24 10.9819 118.546 11.5257C117.853 12.0696 117.315 12.7788 116.937 13.662H116.905V1.45343H112.709V34.3375H116.305L116.748 32.1447H116.843C117.181 32.9278 117.686 33.5412 118.358 33.9982C119.03 34.4507 119.778 34.6769 120.599 34.6769C122.07 34.6769 123.156 33.8633 123.85 32.2403C124.543 30.613 124.892 28.0765 124.892 24.622V20.9542C124.892 18.3653 124.758 16.3335 124.496 14.8716ZM120.504 24.326C120.504 26.0141 120.446 27.3369 120.33 28.2941C120.214 29.2513 120.021 29.9345 119.745 30.3346C119.473 30.7392 119.102 30.9394 118.641 30.9394C118.281 30.9394 117.951 30.8393 117.646 30.6349C117.341 30.4347 117.094 30.1302 116.905 29.7299V16.5771C117.05 15.9462 117.304 15.4329 117.664 15.0282C118.02 14.6236 118.412 14.4234 118.83 14.4234C119.273 14.4234 119.614 14.6323 119.854 15.0456C120.097 15.4633 120.264 16.1595 120.359 17.1428C120.453 18.126 120.501 19.5227 120.501 21.337V24.326H120.504Z" fill="white"/>
<path d="M131.07 25.6617C131.07 27.1497 131.107 28.2635 131.179 29.0076C131.252 29.7515 131.405 30.2911 131.637 30.6349C131.869 30.9742 132.225 31.1438 132.709 31.1438C133.359 31.1438 133.809 30.8393 134.049 30.2345C134.292 29.6298 134.423 28.6204 134.445 27.2107L138.201 27.476C138.222 27.6762 138.233 27.9546 138.233 28.307C138.233 30.4477 137.743 32.0488 136.766 33.1061C135.789 34.1634 134.405 34.6941 132.618 34.6941C130.471 34.6941 128.967 33.8892 128.106 32.2751C127.242 30.661 126.813 28.1679 126.813 24.7915V20.7451C126.813 17.2688 127.26 14.7279 128.154 13.1268C129.047 11.5257 130.576 10.7251 132.745 10.7251C134.238 10.7251 135.386 11.0514 136.185 11.7084C136.984 12.3654 137.547 13.3835 137.874 14.7714C138.201 16.1594 138.364 18.0738 138.364 20.5189V24.487H131.07V25.6617ZM131.622 14.741C131.401 15.0673 131.256 15.6025 131.179 16.3465C131.107 17.0905 131.07 18.2173 131.07 19.7315V21.3936H134.256V19.7315C134.256 18.2434 134.212 17.1166 134.129 16.3465C134.045 15.5764 133.893 15.0368 133.671 14.7192C133.45 14.406 133.108 14.245 132.647 14.245C132.182 14.2493 131.84 14.4147 131.622 14.741Z" fill="white"/>
</g>
</g>
<defs>
<clipPath id="clip0_4_6">
<rect width="139" height="37" fill="white"/>
</clipPath>
<clipPath id="clip1_4_6">
<rect width="139" height="37" fill="white"/>
</clipPath>
</defs>
</svg>
